<?xml version="1.0" encoding="utf-8"?>
<!-- Generator: Adobe Illustrator 22.0.1, SVG Export Plug-In . SVG Version: 6.00 Build 0)  -->
<svg version="1.1" id="Capa_1" xmlns="http://www.w3.org/2000/svg" xmlns:xlink="http://www.w3.org/1999/xlink" x="0px" y="0px"
	 viewBox="0 0 512 512" style="enable-background:new 0 0 512 512;" xml:space="preserve">
<style type="text/css">
	.st0{fill:#FFFFFF;}
</style>
<g>
	<g>
		<path class="st0" d="M256,0C114.8,0,0,114.8,0,256s114.8,256,256,256s256-114.8,256-256S397.2,0,256,0z M256,490.7
			C126.6,490.7,21.3,385.4,21.3,256S126.6,21.3,256,21.3S490.7,126.6,490.7,256S385.4,490.7,256,490.7z"/>
	</g>
</g>
<g>
	<g>
		<path class="st0" d="M256,64C150.1,64,64,150.1,64,256s86.1,192,192,192s192-86.1,192-192S361.9,64,256,64z M256,426.7
			c-94.1,0-170.7-76.6-170.7-170.7S161.9,85.3,256,85.3S426.7,161.9,426.7,256S350.1,426.7,256,426.7z"/>
	</g>
</g>
<g>
	<g>
		<path class="st0" d="M402,225.6c-6.3-29.5-21.3-56.2-43.4-77.1c-2.1-2-4.9-3.2-7.8-2.9c-2.9,0.1-5.6,1.4-7.5,3.5
			c-30.7,34.1-38.3,65.2-20.2,83.3c8.5,8.5,23.2,12.9,38.6,12.9c11.9,0,24.3-2.6,34.7-8C400.7,235.1,403,230.3,402,225.6z
			 M338.2,217.3c-8.5-8.5,0.3-27.9,13.6-45.1c12.7,14.3,21.9,31.1,27.2,49.3C363.4,226.2,344.7,223.8,338.2,217.3z"/>
	</g>
</g>
<g>
	<g>
		<path class="st0" d="M396.5,274.7c-24.1-12.4-58.3-10.1-73.3,4.9c-18.1,18.1-10.5,49.2,20.2,83.3c1.9,2.1,4.6,3.4,7.5,3.5
			c0.1,0,0.3,0,0.4,0c2.7,0,5.4-1,7.3-2.9c22.1-21,37.2-47.6,43.4-77.1C403,281.7,400.7,276.9,396.5,274.7z M351.8,339.8
			c-13.4-17.3-22.1-36.6-13.6-45.2c4.1-4.1,13.3-6.6,23.5-6.6c5.7,0,11.7,0.8,17.3,2.5C373.8,308.8,364.5,325.5,351.8,339.8z"/>
	</g>
</g>
<g>
	<g>
		<path class="st0" d="M301.5,114.6c-29.5-9.4-61.5-9.4-90.9,0c-4.7,1.5-7.7,6-7.4,10.9c2.7,38.4,25.4,67.3,52.9,67.3
			s50.2-28.9,52.9-67.3C309.2,120.6,306.1,116.1,301.5,114.6z M256,171.5c-14.1,0-26.7-16.5-30.6-38.9c20-4.9,41.1-4.9,61.1,0
			C282.7,155,270.1,171.5,256,171.5z"/>
	</g>
</g>
<g>
	<g>
		<path class="st0" d="M308.9,387.3c-2.7-38.4-25.4-67.3-52.9-67.3s-50.2,28.9-52.9,67.3c-0.3,4.9,2.7,9.4,7.4,10.9
			c14.8,4.7,30,7.1,45.5,7.1s30.7-2.4,45.5-7.1C306.1,396.7,309.2,392.2,308.9,387.3z M225.4,380.3c3.9-22.4,16.4-39,30.6-39
			s26.7,16.5,30.6,39C266.5,385.2,245.5,385.2,225.4,380.3z"/>
	</g>
</g>
<g>
	<g>
		<path class="st0" d="M168.7,149.1c-1.9-2.1-4.6-3.4-7.5-3.5c-2.8-0.2-5.7,0.9-7.8,2.9c-22.1,21-37.1,47.6-43.4,77.1
			c-1,4.7,1.3,9.5,5.5,11.7c10.4,5.4,22.8,8,34.7,8c15.5,0,30.1-4.4,38.6-12.9C207,214.3,199.4,183.2,168.7,149.1z M173.8,217.3
			c-6.5,6.5-25.2,8.9-40.8,4.1c5.2-18.2,14.5-35,27.2-49.3C173.5,189.4,182.3,208.8,173.8,217.3z"/>
	</g>
</g>
<g>
	<g>
		<path class="st0" d="M188.9,281.3c-15-15-49.3-17.3-73.3-4.9c-4.3,2.2-6.5,7-5.5,11.7c6.3,29.5,21.3,56.2,43.4,77.1
			c2,1.9,4.6,2.9,7.3,2.9c0.1,0,0.3,0,0.4,0c2.9-0.1,5.6-1.4,7.5-3.5C199.4,330.5,206.9,299.4,188.9,281.3z M160.2,341.5
			c-12.7-14.3-21.9-31.1-27.2-49.3c15.6-4.8,34.3-2.3,40.8,4.1C182.3,304.9,173.5,324.3,160.2,341.5z"/>
	</g>
</g>
<g>
	<g>
		<path class="st0" d="M256,213.3c-23.5,0-42.7,19.1-42.7,42.7s19.1,42.7,42.7,42.7s42.7-19.1,42.7-42.7S279.5,213.3,256,213.3z
			 M256,277.3c-11.8,0-21.3-9.6-21.3-21.3c0-11.8,9.6-21.3,21.3-21.3s21.3,9.6,21.3,21.3C277.3,267.8,267.8,277.3,256,277.3z"/>
	</g>
</g>
</svg>
