<?xml version="1.0" standalone="no"?>
<!DOCTYPE svg PUBLIC "-//W3C//DTD SVG 20010904//EN"
 "http://www.w3.org/TR/2001/REC-SVG-20010904/DTD/svg10.dtd">
<svg version="1.0" xmlns="http://www.w3.org/2000/svg"
 width="425.000000pt" height="425.000000pt" viewBox="0 0 425.000000 425.000000"
 preserveAspectRatio="xMidYMid meet">
<metadata>
Created by potrace 1.11, written by Peter Selinger 2001-2013
</metadata>
<g transform="translate(0.000000,425.000000) scale(0.100000,-0.100000)"
fill="#000000" stroke="none">
<path d="M1940 3683 c-93 -12 -238 -46 -331 -79 -233 -81 -408 -192 -590 -373
-181 -182 -292 -357 -373 -590 -66 -189 -80 -279 -80 -516 0 -180 3 -224 22
-311 69 -319 205 -568 431 -795 182 -181 357 -292 590 -373 190 -66 279 -80
516 -80 237 0 326 14 516 80 233 81 408 192 590 373 181 182 292 357 373 590
66 189 80 279 80 516 0 180 -3 224 -22 311 -69 319 -205 568 -431 795 -181
181 -357 292 -590 373 -174 61 -272 77 -481 81 -102 2 -201 1 -220 -2z m260
-843 c7 -165 17 -300 21 -300 23 0 125 -45 167 -75 l49 -33 259 138 c231 124
259 137 270 122 6 -9 25 -40 42 -68 l30 -51 -252 -162 -252 -163 13 -61 c8
-37 11 -88 8 -127 l-6 -65 245 -150 c135 -82 245 -153 246 -157 0 -8 -60 -112
-82 -142 -14 -17 -29 -10 -266 128 l-252 147 -53 -40 c-29 -22 -78 -51 -108
-65 l-55 -24 -24 -291 -23 -291 -79 0 -78 0 -1 143 c-1 78 -4 211 -8 295 l-6
153 -69 30 c-39 16 -87 43 -108 60 l-38 30 -255 -130 -254 -131 -35 60 c-20
34 -36 64 -36 68 0 4 111 75 246 157 l245 150 -8 55 c-4 30 -7 89 -6 130 l3
75 -240 154 c-132 84 -240 155 -240 157 0 11 73 124 79 124 5 0 118 -58 251
-130 133 -72 246 -130 250 -130 4 0 28 16 52 36 23 20 68 48 98 63 30 14 56
26 58 27 3 2 31 512 32 567 0 15 10 17 78 17 l79 0 13 -300z m245 248 c77 -25
180 -77 253 -127 66 -45 162 -129 162 -142 0 -14 -140 -80 -153 -72 -7 4 -36
26 -65 50 -64 52 -142 93 -238 123 l-72 23 -6 51 c-3 28 -6 68 -6 89 0 38 0
39 33 32 17 -4 59 -16 92 -27z m-553 -57 l-3 -80 -32 -6 c-66 -14 -195 -83
-273 -147 l-80 -65 -67 37 -68 37 61 57 c106 97 234 174 370 222 98 35 96 37
92 -55z m-12 -270 c0 -88 -8 -108 -60 -141 l-48 -31 -68 37 -67 38 44 38 c38
34 169 107 192 108 4 0 7 -22 7 -49z m530 15 c64 -26 170 -93 170 -107 0 -5
-30 -24 -66 -42 l-67 -34 -53 26 -54 26 0 78 c0 42 2 77 5 77 3 0 32 -11 65
-24z m709 -453 c27 -132 27 -265 0 -396 -11 -56 -22 -103 -24 -105 -1 -2 -35
18 -75 43 -56 36 -70 50 -65 63 17 40 18 257 1 336 -9 44 -13 83 -9 87 27 25
138 88 144 82 4 -5 17 -54 28 -110z m-1885 62 c52 -33 57 -40 52 -63 -16 -64
-17 -268 -3 -340 l14 -73 -51 -33 c-100 -64 -91 -66 -112 27 -26 114 -26 331
0 445 12 53 24 81 31 78 6 -2 38 -21 69 -41z m259 -167 l57 -39 0 -58 0 -59
-62 -36 c-33 -20 -65 -33 -69 -29 -26 26 -21 281 4 266 7 -3 38 -24 70 -45z
m1341 -105 c1 -61 -2 -114 -6 -118 -4 -4 -35 10 -70 32 l-63 40 -5 58 -6 58
66 43 c64 41 65 42 74 21 5 -12 9 -72 10 -134z m-1006 -483 l52 -25 0 -77 c0
-43 -2 -78 -5 -78 -21 0 -136 56 -185 91 l-61 42 68 38 c37 21 70 38 73 36 3
-1 29 -13 58 -27z m698 -17 l63 -37 -52 -38 c-50 -37 -126 -78 -176 -93 l-24
-7 7 78 c4 43 8 79 9 80 50 30 94 54 101 54 5 0 38 -17 72 -37z m-995 -119
c61 -65 283 -184 344 -184 12 0 15 -15 15 -86 l0 -86 -32 7 c-92 20 -259 105
-363 185 -57 44 -131 118 -124 124 6 6 123 65 130 66 3 0 16 -12 30 -26z
m1255 -31 c35 -21 63 -42 61 -48 -6 -18 -134 -119 -203 -161 -38 -22 -103 -54
-144 -71 -73 -30 -177 -59 -185 -52 -2 2 0 39 3 83 l7 78 80 27 c99 33 163 68
240 131 33 27 64 49 68 49 4 1 37 -16 73 -36z"/>
<path d="M2044 2390 c-59 -19 -126 -73 -157 -127 -74 -134 -29 -303 100 -376
134 -74 303 -29 376 100 101 181 -17 399 -221 409 -37 2 -81 -1 -98 -6z m123
-130 c25 0 83 -62 93 -99 19 -72 -26 -150 -100 -171 -98 -28 -197 70 -170 170
17 62 92 116 145 105 11 -3 25 -5 32 -5z"/>
</g>
</svg>
