<?xml version="1.0" standalone="no"?>
<!DOCTYPE svg PUBLIC "-//W3C//DTD SVG 20010904//EN"
 "http://www.w3.org/TR/2001/REC-SVG-20010904/DTD/svg10.dtd">
<svg version="1.0" xmlns="http://www.w3.org/2000/svg"
 width="425.000000pt" height="425.000000pt" viewBox="0 0 425.000000 425.000000"
 preserveAspectRatio="xMidYMid meet">
<metadata>
Created by potrace 1.11, written by Peter Selinger 2001-2013
</metadata>
<g transform="translate(0.000000,425.000000) scale(0.100000,-0.100000)"
fill="#000000" stroke="none">
<path d="M1650 4115 c-63 -13 -126 -25 -140 -29 -41 -9 -136 -44 -125 -46 43
-6 208 3 267 16 13 3 77 6 143 9 106 3 128 1 189 -20 102 -35 162 -81 351
-269 148 -147 210 -200 385 -334 68 -52 237 -228 294 -305 100 -137 178 -299
225 -469 50 -180 65 -374 48 -598 -4 -41 -9 -86 -12 -100 -2 -13 -7 -42 -10
-63 -4 -22 -10 -50 -15 -63 -5 -13 -7 -24 -4 -24 4 0 2 -6 -4 -12 -5 -7 -13
-29 -17 -48 -4 -19 -11 -41 -15 -50 -4 -8 -16 -35 -26 -60 -101 -247 -332
-493 -595 -634 -125 -67 -306 -135 -404 -152 -16 -2 -37 -7 -45 -9 -8 -2 -37
-7 -65 -11 -27 -3 -53 -8 -57 -10 -20 -12 -337 -4 -408 11 -14 2 -38 7 -55 10
-179 29 -423 151 -576 288 -65 59 -128 87 -319 142 -159 46 -312 103 -370 139
l-55 35 -3 -31 c-6 -57 87 -209 212 -348 200 -221 516 -490 668 -569 14 -7 24
-19 22 -26 -5 -11 -44 -34 -69 -41 -5 -1 -46 -14 -91 -27 -126 -39 -174 -68
-174 -106 0 -15 45 -59 85 -84 39 -24 161 -72 208 -81 12 -3 33 -7 47 -10 69
-16 182 -34 250 -41 352 -36 934 -18 1235 39 11 2 40 7 65 12 25 4 47 8 50 9
3 1 32 7 65 14 102 21 277 81 340 116 55 30 92 61 109 92 24 43 -76 112 -209
144 -114 28 -175 48 -175 59 0 5 28 35 62 67 197 184 386 386 480 511 93 123
232 350 239 387 3 18 10 40 19 56 10 20 37 154 47 239 10 81 10 505 1 580 -46
365 -198 736 -412 1006 -23 28 -50 62 -61 76 -65 83 -201 211 -314 297 -44 34
-82 61 -84 61 -3 0 -28 15 -56 34 -93 63 -333 168 -434 191 -12 2 -51 12 -87
20 -36 9 -76 18 -90 21 -14 3 -113 7 -220 9 -171 2 -209 0 -310 -20z"/>
<path d="M1680 3513 c-405 -60 -781 -341 -958 -713 -40 -85 -87 -221 -97 -283
-3 -17 -8 -39 -10 -47 -8 -29 -18 -146 -18 -215 -2 -254 74 -509 215 -720 48
-72 60 -86 138 -171 305 -333 800 -474 1255 -358 77 20 207 70 265 102 25 14
54 30 65 36 11 6 61 41 110 78 166 122 308 294 395 481 39 83 85 217 96 282 2
17 7 37 9 45 7 25 16 133 16 201 4 391 -163 751 -461 1000 -81 67 -145 110
-237 157 -93 48 -267 108 -337 116 -26 3 -52 9 -58 12 -21 13 -295 11 -388 -3z
m90 -398 l0 -55 110 0 110 0 0 54 c0 47 3 54 18 52 9 -2 35 -7 57 -11 63 -11
175 -51 240 -86 69 -37 145 -87 145 -96 0 -4 -16 -21 -35 -39 l-36 -33 76 -77
75 -77 23 19 c12 10 29 27 38 37 16 16 18 15 43 -17 69 -91 143 -270 161 -388
l7 -48 -51 0 -51 0 0 -111 c0 -99 2 -110 18 -108 9 1 32 1 50 0 31 -1 32 -2
27 -33 -3 -18 -8 -45 -11 -60 -13 -81 -81 -231 -145 -324 l-30 -44 -34 35
c-18 19 -37 35 -41 35 -4 0 -40 -33 -81 -74 l-73 -75 37 -36 37 -36 -29 -24
c-82 -65 -281 -148 -387 -161 l-48 -6 0 50 0 49 -110 1 -110 0 0 -49 c0 -45
-2 -49 -23 -49 -84 0 -331 99 -411 165 l-29 24 36 36 36 36 -73 75 c-40 41
-76 74 -80 74 -4 0 -20 -14 -36 -30 -16 -17 -33 -30 -38 -30 -14 0 -76 98
-116 181 -32 68 -85 254 -75 264 3 2 27 5 54 7 l50 3 0 108 1 107 -54 0 -54 0
7 53 c14 108 85 280 155 376 l32 43 33 -36 c18 -20 36 -36 40 -36 4 0 40 34
80 75 l74 75 -35 35 c-18 19 -34 37 -34 39 0 3 26 23 59 45 90 61 197 107 316
135 89 21 85 23 85 -39z"/>
<path d="M1828 2619 c-167 -26 -312 -183 -323 -350 -7 -122 25 -214 106 -303
77 -84 212 -137 314 -122 80 12 100 18 157 48 151 81 235 267 192 430 -53 205
-240 329 -446 297z"/>
</g>
</svg>
