<svg xmlns="http://www.w3.org/2000/svg" viewBox="5153.916 628.553 93.358 74.696">
  <g id="akril" transform="translate(3954.664 -27.585)">
    <path fill="none" stroke="currentColor" stroke-width="2px" d="M5644.6,1078.774l6.271-3.216,2.1,2.911,1.463-.788,1.238,1.52-8.5,6.305-1.238-1.8,1.238-1.182Z" transform="translate(-4412.061 -418.138)"/>
    <path fill="none" stroke="currentColor" stroke-width="2px" d="M5647.253,1093.8l12.861-9.181,1.168.823,6.106,2.3-19.617,13.987v-6.8Z" transform="translate(-4413.792 -424.046)"/>
    <path fill="none" stroke="currentColor" stroke-width="4px" d="M5647.113,1109.356l22.738-16.269s6.112,8.545,13.356,18.714c8.782,12.329,19.275,27.119,20.8,29.522,2.728,4.3-19.564,19.844-22.9,15.03S5647.113,1109.356,5647.113,1109.356Z" transform="translate(-4413.7 -428.571)"/>
    <path fill="none" stroke="currentColor" stroke-width="2px" d="M5596.515,1098.256l16.561-4.663-9.808,13.828" transform="translate(-4386.718 -427.321)"/>
    <path fill="none" stroke="currentColor" stroke-width="2px" d="M5582.687,1093.087a17.622,17.622,0,0,0-3.852,8c-.643,4.385,4.562,5.457,4.562,5.457s.569,6.081,4.669,6.081a23.736,23.736,0,0,0,8.448-1.992" transform="translate(-4378.524 -424.41)"/>
    <g stroke="currentColor" fill="currentColor" stroke-width="2px" transform="matrix(0.809, -0.588, 0.588, 0.809, 1240, 690.287)">
      <rect stroke="none" width="14.625" height="32.69"/>
      <rect fill="none" x="1" y="1" width="12.625" height="30.69"/>
    </g>
  </g>
</svg>
