<svg xmlns="http://www.w3.org/2000/svg" viewBox="5350.745 636.555 129.246 59.959">
  <g id="drugie" transform="translate(3675.963 -158)">
    <path fill="none" stroke="currentColor" stroke-width="4px" d="M5627.11,844.459s-2.271-11.15,5.575-18.583,33.45-9.7,33.45-9.7l14.041-19.616h51.62l9.911,19.616s4.956,1.032,7.227,4.749,3.1,19,3.1,19" transform="translate(-3950 0)"/>
    <path fill="none" stroke="currentColor" stroke-width="4px" d="M5689.7,796.555V817" transform="translate(-3932.681 0)"/>
    <path fill="none" stroke="currentColor" stroke-width="4px" d="M5650.035,834.116h64.216" transform="translate(-3943.604 10.343)"/>
    <path fill="none" stroke="currentColor" stroke-width="2px" d="M5654.729,817.278h7.434" transform="translate(-3942.311 5.706)"/>
    <g fill="none" stroke="currentColor" stroke-width="5px" transform="translate(1683.43 829.006)">
      <circle stroke="none" cx="12.754" cy="12.754" r="12.754"/>
      <circle fill="none" cx="12.754" cy="12.754" r="10.254"/>
    </g>
    <g fill="none" stroke="currentColor" stroke-width="5px" transform="translate(1768.879 829.006)">
      <circle stroke="none" cx="12.754" cy="12.754" r="12.754"/>
      <circle fill="none" cx="12.754" cy="12.754" r="10.254"/>
    </g>
    <path fill="none" stroke="currentColor" stroke-width="4px" d="M5657.644,812.583h75.626" transform="translate(-3941.509 3.138)"/>
  </g>
</svg>
