<svg xmlns="http://www.w3.org/2000/svg" viewBox="4554.928 625.524 88.821 83.861">
  <g id="prokatka" transform="translate(3950.006 -34.573)">
    <g id="ray" transform="translate(621.372 666.9)">
      <path class="cls-1" fill="none" stroke="currentColor" stroke-width="2px" d="M652.256,677.081l-.929,19a15.494,15.494,0,0,0-2.816,1.408,22.162,22.162,0,0,0-2.418,1.88l-16.615-8.921" transform="translate(-629.478 -677.081)"/>
      <path class="cls-1" fill="none" stroke="currentColor" stroke-width="2px" d="M634.994,692.022a33.862,33.862,0,0,1,6.659-5.633,24.9,24.9,0,0,1,7.423-2.816" transform="translate(-627.227 -674.431)"/>
    </g>
    <g id="ray-2" data-name="ray" transform="translate(665.286 660.528) rotate(59)">
      <path class="cls-1" fill="none" stroke="currentColor" stroke-width="2px" d="M22.778,0l-.929,19a15.492,15.492,0,0,0-2.816,1.408,22.169,22.169,0,0,0-2.418,1.88L0,13.366" transform="translate(0)"/>
      <path class="cls-1" fill="none" stroke="currentColor" stroke-width="2px" d="M0,8.449A33.858,33.858,0,0,1,6.659,2.816,24.9,24.9,0,0,1,14.082,0" transform="translate(7.768 9.142)"/>
    </g>
    <g id="ray-3" data-name="ray" transform="translate(693.472 695.295) rotate(119)">
      <path class="cls-1" fill="none" stroke="currentColor" stroke-width="2px" d="M22.778,0l-.929,19a15.492,15.492,0,0,0-2.816,1.408,22.169,22.169,0,0,0-2.418,1.88L0,13.366" transform="translate(0)"/>
      <path class="cls-1" fill="none" stroke="currentColor" stroke-width="2px" d="M0,8.449A33.858,33.858,0,0,1,6.659,2.816,24.9,24.9,0,0,1,14.082,0" transform="translate(7.768 9.142)"/>
    </g>
    <g id="ray-4" data-name="ray" transform="translate(676.24 738.001) rotate(-178)">
      <path class="cls-1" fill="none" stroke="currentColor" stroke-width="2px" d="M22.778,0l-.929,19a15.494,15.494,0,0,0-2.816,1.408,22.162,22.162,0,0,0-2.418,1.88L0,13.366"/>
      <path class="cls-1" fill="none" stroke="currentColor" stroke-width="2px" d="M0,8.449A33.861,33.861,0,0,1,6.659,2.816,24.9,24.9,0,0,1,14.082,0" transform="translate(7.768 9.142)"/>
    </g>
    <g id="ray-5" data-name="ray" transform="translate(605.201 708.441) rotate(-60)">
      <path class="cls-1" fill="none" stroke="currentColor" stroke-width="2px" d="M22.778,0l-.929,19a15.492,15.492,0,0,0-2.816,1.408,22.169,22.169,0,0,0-2.418,1.88L0,13.366"/>
      <path class="cls-1" fill="none" stroke="currentColor" stroke-width="2px" d="M0,8.449A33.858,33.858,0,0,1,6.659,2.816,24.9,24.9,0,0,1,14.082,0" transform="translate(7.768 9.142)"/>
    </g>
    <g id="ray-6" data-name="ray" transform="translate(632.369 743.524) rotate(-120)">
      <path class="cls-1" fill="none" stroke="currentColor" stroke-width="2px" d="M22.778,0l-.929,19a15.492,15.492,0,0,0-2.816,1.408,22.169,22.169,0,0,0-2.418,1.88L0,13.366"/>
      <path class="cls-1" fill="none" stroke="currentColor" stroke-width="2px" d="M0,8.449A33.858,33.858,0,0,1,6.659,2.816,24.9,24.9,0,0,1,14.082,0" transform="translate(7.768 9.142)"/>
    </g>
    <g class="cls-2" fill="transparent" stroke="currentColor" stroke-width="2px" transform="translate(642.994 695.573)">
      <circle class="cls-4" stroke="none" cx="6.5" cy="6.5" r="6.5"/>
      <circle class="cls-5" fill="none" cx="6.5" cy="6.5" r="5.5"/>
    </g>
    <g class="cls-3" fill="transparent" stroke="currentColor" stroke-width="4px" transform="translate(611.994 664.573)">
      <circle class="cls-4" stroke="none" cx="37.5" cy="37.5" r="37.5"/>
      <circle class="cls-5" fill="none" cx="37.5" cy="37.5" r="35.5"/>
    </g>
  </g>
</svg>
