<svg xmlns="http://www.w3.org/2000/svg">
    <symbol id="akril" xmlns="http://www.w3.org/2000/svg" viewBox="5153.916 628.553 93.358 74.696">
        <g transform="translate(3954.664 -27.585)">
            <path fill="none" stroke="currentColor" stroke-width="2px" d="M5644.6,1078.774l6.271-3.216,2.1,2.911,1.463-.788,1.238,1.52-8.5,6.305-1.238-1.8,1.238-1.182Z" transform="translate(-4412.061 -418.138)"/>
            <path fill="none" stroke="currentColor" stroke-width="2px" d="M5647.253,1093.8l12.861-9.181,1.168.823,6.106,2.3-19.617,13.987v-6.8Z" transform="translate(-4413.792 -424.046)"/>
            <path fill="none" stroke="currentColor" stroke-width="4px" d="M5647.113,1109.356l22.738-16.269s6.112,8.545,13.356,18.714c8.782,12.329,19.275,27.119,20.8,29.522,2.728,4.3-19.564,19.844-22.9,15.03S5647.113,1109.356,5647.113,1109.356Z" transform="translate(-4413.7 -428.571)"/>
            <path fill="none" stroke="currentColor" stroke-width="2px" d="M5596.515,1098.256l16.561-4.663-9.808,13.828" transform="translate(-4386.718 -427.321)"/>
            <path fill="none" stroke="currentColor" stroke-width="2px" d="M5582.687,1093.087a17.622,17.622,0,0,0-3.852,8c-.643,4.385,4.562,5.457,4.562,5.457s.569,6.081,4.669,6.081a23.736,23.736,0,0,0,8.448-1.992" transform="translate(-4378.524 -424.41)"/>
            <g stroke="currentColor" fill="currentColor" stroke-width="2px" transform="matrix(0.809, -0.588, 0.588, 0.809, 1240, 690.287)">
                <rect stroke="none" width="14.625" height="32.69"/>
                <rect fill="none" x="1" y="1" width="12.625" height="30.69"/>
            </g>
        </g>
    </symbol>
    <symbol id="drugie" xmlns="http://www.w3.org/2000/svg" viewBox="5350.745 636.555 129.246 59.959">
        <g transform="translate(3675.963 -158)">
            <path fill="none" stroke="currentColor" stroke-width="4px" d="M5627.11,844.459s-2.271-11.15,5.575-18.583,33.45-9.7,33.45-9.7l14.041-19.616h51.62l9.911,19.616s4.956,1.032,7.227,4.749,3.1,19,3.1,19" transform="translate(-3950 0)"/>
            <path fill="none" stroke="currentColor" stroke-width="4px" d="M5689.7,796.555V817" transform="translate(-3932.681 0)"/>
            <path fill="none" stroke="currentColor" stroke-width="4px" d="M5650.035,834.116h64.216" transform="translate(-3943.604 10.343)"/>
            <path fill="none" stroke="currentColor" stroke-width="2px" d="M5654.729,817.278h7.434" transform="translate(-3942.311 5.706)"/>
            <g fill="none" stroke="currentColor" stroke-width="5px" transform="translate(1683.43 829.006)">
                <circle stroke="none" cx="12.754" cy="12.754" r="12.754"/>
                <circle fill="none" cx="12.754" cy="12.754" r="10.254"/>
            </g>
            <g fill="none" stroke="currentColor" stroke-width="5px" transform="translate(1768.879 829.006)">
                <circle stroke="none" cx="12.754" cy="12.754" r="12.754"/>
                <circle fill="none" cx="12.754" cy="12.754" r="10.254"/>
            </g>
            <path fill="none" stroke="currentColor" stroke-width="4px" d="M5657.644,812.583h75.626" transform="translate(-3941.509 3.138)"/>
        </g>
    </symbol>
    <symbol id="pokraska" xmlns="http://www.w3.org/2000/svg" viewBox="4368.033 629.237 68.905 75.139">
        <g transform="translate(3950 -36)">
            <path fill="none" stroke="currentColor" stroke-width="4px" class="cls-1" d="M420.79,678.386l17.753-10.432,10.8,17.57a12.487,12.487,0,0,1,.917,7.167,10.1,10.1,0,0,1-.453,1.521A12.515,12.515,0,0,1,446.367,699,13.492,13.492,0,0,1,439,700.664,11.053,11.053,0,0,1,432,697Z"/>
            <path fill="none" stroke="currentColor" stroke-width="2px" class="cls-2" d="M424.816,686.073H449.9"/>
            <path fill="none" stroke="currentColor" stroke-width="3px" class="cls-3" d="M423.039,705.741l32.356-.089,7.092,3.723v6.117l-7.092,3.989H423.039Z"/>
            <path fill="none" stroke="currentColor" stroke-width="3px" class="cls-3" d="M429.864,719.481,424.28,735.7l7.89,2.748,6.028-18.971"/>
            <path fill="none" stroke="currentColor" stroke-width="4px" class="cls-1" d="M443.6,719.924l-.089,9.751" transform="translate(-0.516 -0.676)"/>
            <path fill="none" stroke="currentColor" stroke-width="2px" class="cls-2" d="M4427.307,689.494l-15.629,12.724,15.629,10.969" transform="translate(-3941 5.767)"/>
            <g stroke-width="2px" fill="none" class="cls-4" transform="translate(441 727)">
                <circle stroke="none" fill="currentColor" class="cls-5" cx="2" cy="2" r="2"/>
                <circle fill="none" class="cls-6" cx="2" cy="2" r="1"/>
            </g>
        </g>
    </symbol>
    <symbol id="polirovka" xmlns="http://www.w3.org/2000/svg" viewBox="4753.066 616.42 103.153 103.153">
        <g transform="translate(3892.366 -40)">
            <g fill="#fff" stroke-width="4px" stroke="currentColor" class="cls-1" transform="matrix(0.695, 0.719, -0.719, 0.695, 913.177, 656.42)">
                <circle stroke="none" class="cls-4" cx="36.476" cy="36.476" r="36.476"/>
                <circle fill="none" cx="36.476" cy="36.476" r="34.476"/>
            </g>
            <g stroke="currentColor" stroke-width="2px" fill="none" transform="matrix(0.695, 0.719, -0.719, 0.695, 912.406, 700.629)">
                <circle stroke="none" class="cls-4" cx="5.685" cy="5.685" r="5.685"/>
                <circle fill="none" cx="5.685" cy="5.685" r="4.685"/>
            </g>
            <path stroke="currentColor" stroke-width="2px" fill="currentColor" class="cls-3" d="M0,31.3V0H4.629V31.3" transform="matrix(0.695, 0.719, -0.719, 0.695, 935.992, 682.461)"/>
            <path stroke="currentColor" stroke-width="2px" fill="currentColor" class="cls-3" d="M0,31.3V0H4.629V31.3" transform="translate(943.206 723.866) rotate(121)"/>
            <path stroke="currentColor" stroke-width="2px" fill="none" d="M0,31.3V0H4.629V31.3" transform="translate(899.629 675.322) rotate(-14)"/>
            <path stroke="currentColor" stroke-width="2px" fill="none" d="M0,30.538V0H4.629V30.538" transform="translate(904.938 742.5) rotate(-164)"/>
            <path stroke="currentColor" stroke-width="2px" fill="none" d="M0,30.774V0H4.629V30.774" transform="translate(877.206 710.22) rotate(-89)"/>
            <path stroke="currentColor" stroke-width="2px" fill="none" d="M0,0,7.926,7.056,0,14.1" transform="translate(960.413 740.337) rotate(159)"/>
            <path stroke="currentColor" stroke-width="2px" fill="none" d="M0,0,7.926,7.056,0,14.1" transform="translate(864.376 675.708) rotate(-24)"/>
        </g>
    </symbol>
    <symbol id="prokatka" xmlns="http://www.w3.org/2000/svg" viewBox="4562 630 75 75">
        <g transform="translate(3950.006 -34.573)">
            <g id="ray">
                <path fill="none" stroke="currentColor" stroke-width="3px" d="M645.654,677.081l-.66,13.492a11,11,0,0,0-2,1,15.741,15.741,0,0,0-1.717,1.335l-11.8-6.335"/>
                <path fill="none" stroke="currentColor" stroke-width="3px" d="M634.994,689.573a24.044,24.044,0,0,1,4.729-4,17.685,17.685,0,0,1,5.271-2"/>
            </g>
            <g transform="translate(916.83 -215.734) rotate(59)">
                <path fill="none" stroke="currentColor" stroke-width="3px" d="M645.654,677.081l-.66,13.492a11,11,0,0,0-2,1,15.741,15.741,0,0,0-1.717,1.335l-11.8-6.335"/>
                <path fill="none" stroke="currentColor" stroke-width="3px" d="M634.994,689.573a24.044,24.044,0,0,1,4.729-4,17.685,17.685,0,0,1,5.271-2"/>
            </g>
            <g transform="translate(1578.044 474.948) rotate(119)">
                <path fill="none" stroke="currentColor" stroke-width="3px" d="M645.654,677.081l-.66,13.492a11,11,0,0,0-2,1,15.741,15.741,0,0,0-1.717,1.335l-11.8-6.335"/>
                <path fill="none" stroke="currentColor" stroke-width="3px" d="M634.994,689.573a24.044,24.044,0,0,1,4.729-4,17.685,17.685,0,0,1,5.271-2"/>
            </g>
            <g transform="translate(1273.907 1426.21) rotate(-178)">
                <path fill="none" stroke="currentColor" stroke-width="3px" d="M645.654,677.081l-.66,13.492a11,11,0,0,0-2,1,15.741,15.741,0,0,0-1.717,1.335l-11.8-6.335"/>
                <path fill="none" stroke="currentColor" stroke-width="3px" d="M634.994,689.573a24.044,24.044,0,0,1,4.729-4,17.685,17.685,0,0,1,5.271-2"/>
            </g>
            <g transform="translate(-283.115 913.185) rotate(-60)">
                <path fill="none" stroke="currentColor" stroke-width="3px" d="M645.654,677.081l-.66,13.492a11,11,0,0,0-2,1,15.741,15.741,0,0,0-1.717,1.335l-11.8-6.335"/>
                <path fill="none" stroke="currentColor" stroke-width="3px" d="M634.994,689.573a24.044,24.044,0,0,1,4.729-4,17.685,17.685,0,0,1,5.271-2"/>
            </g>
            <g transform="translate(365.657 1615.18) rotate(-120)">
                <path fill="none" stroke="currentColor" stroke-width="3px" d="M645.654,677.081l-.66,13.492a11,11,0,0,0-2,1,15.741,15.741,0,0,0-1.717,1.335l-11.8-6.335"/>
                <path fill="none" stroke="currentColor" stroke-width="3px" d="M634.994,689.573a24.044,24.044,0,0,1,4.729-4,17.685,17.685,0,0,1,5.271-2"/>
            </g>
            <g stroke="currentColor" stroke-width="3px" fill="none" transform="translate(642.994 695.573)">
                <circle stroke="none" cx="6.5" cy="6.5" r="6.5"/>
                <circle fill="none" cx="6.5" cy="6.5" r="5"/>
            </g>
            <g stroke="currentColor" stroke-width="13px" fill="none" transform="translate(611.994 664.573)">
                <circle stroke="none" cx="37.5" cy="37.5" r="37.5"/>
                <circle fill="none" cx="37.5" cy="37.5" r="31"/>
            </g>
        </g>
    </symbol>
    <symbol id="svarka" xmlns="http://www.w3.org/2000/svg" viewBox="4974.357 633.103 69.285 70.397">
        <g transform="translate(3950 -36)">
            <rect fill="currentColor" id="visor" width="30" height="17" transform="translate(1044 682)"/>
            <g id="person">
                <path fill="none" stroke="currentColor" stroke-width="3px" d="M1042,670.6h34a6.65,6.65,0,0,1,2,1.4,5.026,5.026,0,0,1,1,2v33s-1.808,8.232-6.558,12.482S1060,724,1060,724s-8.75-.268-14-4.518-6.62-12.122-6.62-12.122V674a2.827,2.827,0,0,1,.62-2A6.65,6.65,0,0,1,1042,670.6Z"/>
                <path fill="none" stroke="currentColor" stroke-width="3px" d="M1045,719s-5.376,2.655-9.509,5a19.308,19.308,0,0,0-5.988,5,11.657,11.657,0,0,0-2.5,4,26,26,0,0,0-1,5h66a26,26,0,0,0-1-5,13.449,13.449,0,0,0-2.252-4,25.06,25.06,0,0,0-6.748-5.446c-4.539-2.324-9-4.554-9-4.554"/>
            </g>
        </g>
    </symbol>
</svg>