<svg xmlns="http://www.w3.org/2000/svg" xmlns:xlink="http://www.w3.org/1999/xlink" width="94" height="76" viewBox="0 0 94 76"><defs><path id="7a6ya" d="M1263.88 689.15l-19.22-26.45 11.84-8.6 19.21 26.45z"/><path id="7a6yb" d="M1237.2 633.05l6.27-3.22 2.1 2.92 1.46-.8 1.24 1.53-8.5 6.3-1.24-1.8 1.24-1.18z"/><path id="7a6yc" d="M1238.13 642.17l12.86-9.19 1.17.83 6.1 2.3-19.61 13.98v-6.8z"/><path id="7a6yd" d="M1238.08 653.2l22.74-16.27 13.35 18.71c8.78 12.33 19.28 27.12 20.8 29.53 2.73 4.3-19.56 19.84-22.9 15.03-3.34-4.82-34-47-34-47z"/><path id="7a6ye" d="M1214.46 643.35l16.56-4.66-9.8 13.82"/><path id="7a6yf" d="M1208.83 641.1s-3.21 3.6-3.85 7.99c-.65 4.38 4.56 5.45 4.56 5.45s.57 6.08 4.67 6.08 8.44-1.99 8.44-1.99"/><clipPath id="7a6yg"><use fill="#fff" xlink:href="#7a6ya"/></clipPath></defs><g><g transform="translate(-1204 -628)"><g><use fill="#fff" fill-opacity="0" stroke="#575757" stroke-miterlimit="50" stroke-width="2" xlink:href="#7a6yb"/></g><g><use fill="#fff" fill-opacity="0" stroke="#575757" stroke-miterlimit="50" stroke-width="2" xlink:href="#7a6yc"/></g><g><use fill="#fff" fill-opacity="0" stroke="#575757" stroke-miterlimit="50" stroke-width="4" xlink:href="#7a6yd"/></g><g><use fill="#fff" fill-opacity="0" stroke="#575757" stroke-miterlimit="50" stroke-width="2" xlink:href="#7a6ye"/></g><g><use fill="#fff" fill-opacity="0" stroke="#575757" stroke-miterlimit="50" stroke-width="2" xlink:href="#7a6yf"/></g><g><use fill="#575757" xlink:href="#7a6ya"/><use fill="#fff" fill-opacity="0" stroke="#575757" stroke-miterlimit="50" stroke-width="4" clip-path="url(&quot;#7a6yg&quot;)" xlink:href="#7a6ya"/></g></g></g></svg>