<svg xmlns="http://www.w3.org/2000/svg" xmlns:xlink="http://www.w3.org/1999/xlink" width="130" height="61" viewBox="0 0 130 61"><defs><path id="7wuea" d="M1409.4 683.76a12.75 12.75 0 1 1 25.5 0 12.75 12.75 0 0 1-25.5 0z"/><path id="7wueb" d="M1494.84 683.76a12.75 12.75 0 1 1 25.5 0 12.75 12.75 0 0 1-25.5 0z"/><path id="7wuec" d="M1403.07 686.46s-2.27-11.15 5.58-18.58c7.84-7.44 33.45-9.7 33.45-9.7l14.04-19.63h51.62l9.91 19.62s4.96 1.03 7.23 4.75c2.27 3.72 3.1 19 3.1 19"/><path id="7wued" d="M1482.98 638.55V659"/><path id="7wuee" d="M1432.4 686.46h64.21"/><path id="7wuef" d="M1438.38 664.98h7.44"/><path id="7wuei" d="M1442.1 657.72h75.62"/><clipPath id="7wueg"><use fill="#fff" xlink:href="#7wuea"/></clipPath><clipPath id="7wueh"><use fill="#fff" xlink:href="#7wueb"/></clipPath></defs><g><g transform="translate(-1400 -636)"><g><use fill="#fff" fill-opacity="0" stroke="#575757" stroke-miterlimit="50" stroke-width="4" xlink:href="#7wuec"/></g><g><use fill="#fff" fill-opacity="0" stroke="#575757" stroke-miterlimit="50" stroke-width="4" xlink:href="#7wued"/></g><g><use fill="#fff" fill-opacity="0" stroke="#575757" stroke-miterlimit="50" stroke-width="4" xlink:href="#7wuee"/></g><g><use fill="#fff" fill-opacity="0" stroke="#575757" stroke-miterlimit="50" stroke-width="2" xlink:href="#7wuef"/></g><g><use fill="#fff" fill-opacity="0" stroke="#575757" stroke-miterlimit="50" stroke-width="10" clip-path="url(&quot;#7wueg&quot;)" xlink:href="#7wuea"/></g><g><use fill="#fff" fill-opacity="0" stroke="#575757" stroke-miterlimit="50" stroke-width="10" clip-path="url(&quot;#7wueh&quot;)" xlink:href="#7wueb"/></g><g><use fill="#fff" fill-opacity="0" stroke="#575757" stroke-miterlimit="50" stroke-width="4" xlink:href="#7wuei"/></g></g></g></svg>