<svg xmlns="http://www.w3.org/2000/svg" xmlns:xlink="http://www.w3.org/1999/xlink" width="97" height="74" viewBox="0 0 97 74"><defs><path id="m1uaa" d="M829.3 641.76a36.48 36.48 0 1 1 50.68 52.48 36.48 36.48 0 0 1-50.68-52.48z"/><path id="m1uab" d="M850.68 664.58a5.68 5.68 0 1 1 7.9 8.18 5.68 5.68 0 0 1-7.9-8.18z"/><path id="m1uae" d="M855.85 664.2l22.5-21.74 3.22 3.33-22.5 21.74"/><path id="m1uaf" d="M858.75 667.75l26.82 16.12-2.38 3.96-26.83-16.11"/><path id="m1uag" d="M849.57 665.69l-7.58-30.37 4.5-1.12 7.57 30.37"/><path id="m1uah" d="M855.72 673.15l-8.42 29.35-4.45-1.28 8.42-29.35"/><path id="m1uai" d="M850.34 670.76l-30.77-.54.08-4.63 30.77.54"/><path id="m1uaj" d="M902.78 700.34l-9.93-3.75 4.88-9.42"/><path id="m1uak" d="M806.74 635.7l10.11 3.23-4.37 9.66"/><clipPath id="m1uac"><use fill="#fff" xlink:href="#m1uaa"/></clipPath><clipPath id="m1uad"><use fill="#fff" xlink:href="#m1uab"/></clipPath></defs><g><g transform="translate(-806 -631)"><g><use fill="#fff" xlink:href="#m1uaa"/><use fill="#fff" fill-opacity="0" stroke="#575757" stroke-miterlimit="50" stroke-width="8" clip-path="url(&quot;#m1uac&quot;)" xlink:href="#m1uaa"/></g><g><use fill="#fff" fill-opacity="0" stroke="#575757" stroke-miterlimit="50" stroke-width="4" clip-path="url(&quot;#m1uad&quot;)" xlink:href="#m1uab"/></g><g><use fill="#575757" xlink:href="#m1uae"/><use fill="#fff" fill-opacity="0" stroke="#575757" stroke-miterlimit="50" stroke-width="2" xlink:href="#m1uae"/></g><g><use fill="#575757" xlink:href="#m1uaf"/><use fill="#fff" fill-opacity="0" stroke="#575757" stroke-miterlimit="50" stroke-width="2" xlink:href="#m1uaf"/></g><g><use fill="#fff" fill-opacity="0" stroke="#575757" stroke-miterlimit="50" stroke-width="2" xlink:href="#m1uag"/></g><g><use fill="#fff" fill-opacity="0" stroke="#575757" stroke-miterlimit="50" stroke-width="2" xlink:href="#m1uah"/></g><g><use fill="#fff" fill-opacity="0" stroke="#575757" stroke-miterlimit="50" stroke-width="2" xlink:href="#m1uai"/></g><g><use fill="#fff" fill-opacity="0" stroke="#575757" stroke-miterlimit="50" stroke-width="2" xlink:href="#m1uaj"/></g><g><use fill="#fff" fill-opacity="0" stroke="#575757" stroke-miterlimit="50" stroke-width="2" xlink:href="#m1uak"/></g></g></g></svg>