<svg xmlns="http://www.w3.org/2000/svg" viewBox="4974.357 633.103 69.285 70.397">
  <g id="svarka" transform="translate(3950 -36)">
    <rect id="visor" fill="currentColor" width="30" height="17" transform="translate(1044 682)"/>
    <g id="person">
      <path id="Path_77" data-name="Path 77" fill="none" stroke="currentColor" stroke-width="3px" d="M1042,670.6h34a6.65,6.65,0,0,1,2,1.4,5.026,5.026,0,0,1,1,2v33s-1.808,8.232-6.558,12.482S1060,724,1060,724s-8.75-.268-14-4.518-6.62-12.122-6.62-12.122V674a2.827,2.827,0,0,1,.62-2A6.65,6.65,0,0,1,1042,670.6Z"/>
      <path id="Path_78" data-name="Path 78" fill="none" stroke="currentColor" stroke-width="3px" d="M1045,719s-5.376,2.655-9.509,5a19.308,19.308,0,0,0-5.988,5,11.657,11.657,0,0,0-2.5,4,26,26,0,0,0-1,5h66a26,26,0,0,0-1-5,13.449,13.449,0,0,0-2.252-4,25.06,25.06,0,0,0-6.748-5.446c-4.539-2.324-9-4.554-9-4.554"/>
    </g>
  </g>
</svg>
