<?xml version="1.0" encoding="utf-8"?>
<!-- Generator: Adobe Illustrator 16.0.0, SVG Export Plug-In . SVG Version: 6.00 Build 0)  -->
<!DOCTYPE svg PUBLIC "-//W3C//DTD SVG 1.1//EN" "http://www.w3.org/Graphics/SVG/1.1/DTD/svg11.dtd">
<svg version="1.1" id="Capa_1" xmlns="http://www.w3.org/2000/svg" xmlns:xlink="http://www.w3.org/1999/xlink" x="0px" y="0px"
	 width="700px" height="700px" viewBox="0 0 700 700" enable-background="new 0 0 700 700" xml:space="preserve">
<g>
	<path fill="currentColor" d="M542.333,157.667C490.958,106.292,422.652,78,350,78c-72.652,0-140.958,28.292-192.333,79.667
		C106.293,209.04,78,277.346,78,350c0,72.653,28.292,140.958,79.667,192.333C209.041,593.707,277.346,622,350,622
		c72.653,0,140.958-28.293,192.333-79.667C593.707,490.959,622,422.653,622,350C622,277.346,593.707,209.04,542.333,157.667z
		 M350,600.468c-138.109,0-250.467-112.36-250.467-250.468S211.891,99.533,350,99.533c138.109,0,250.468,112.36,250.468,250.467
		C600.467,488.107,488.107,600.468,350,600.468z"/>
	<path fill="currentColor" d="M350,146.108c-112.426,0-203.892,91.465-203.892,203.892c0,112.426,91.465,203.892,203.892,203.892
		c112.426,0,203.892-91.464,203.892-203.892C553.893,237.573,462.426,146.108,350,146.108z M350,532.359
		c-100.553,0-182.359-81.807-182.359-182.359S249.447,167.641,350,167.641c100.553,0,182.359,81.805,182.359,182.359
		S450.554,532.359,350,532.359z"/>
	<path fill="currentColor" d="M387.846,350c0-20.868-16.978-37.846-37.846-37.846c-20.869,0-37.846,16.978-37.846,37.846
		S329.13,387.846,350,387.846C370.868,387.846,387.846,370.868,387.846,350z M333.686,350c0-8.996,7.318-16.314,16.314-16.314
		s16.315,7.319,16.315,16.314c0,8.996-7.318,16.314-16.315,16.314C341.005,366.314,333.686,358.995,333.686,350z"/>
	<path fill="currentColor" d="M350,183.133c-92.011,0-166.866,74.855-166.866,166.866S257.991,516.864,350,516.864
		c92.01,0,166.866-74.854,166.866-166.865S442.011,183.133,350,183.133z M495.333,350c0,15.683-2.507,30.787-7.123,44.949
		l-58.875-38.704c-3.04-1.999-3.368-5.033-3.368-6.245s0.328-4.248,3.368-6.245l58.873-38.704
		C492.828,319.21,495.333,334.318,495.333,350z M457.962,252.813l-62.889,31.592c-3.254,1.634-6.044,0.4-7.094-0.205
		c-1.049-0.606-3.516-2.408-3.725-6.041l-4.081-70.333C410.734,214.304,437.774,230.41,457.962,252.813z M319.82,207.827
		l-4.08,70.342c-0.211,3.632-2.675,5.435-3.724,6.04c-1.051,0.607-3.844,1.838-7.093,0.205l-62.886-31.598
		C262.223,230.412,289.264,214.307,319.82,207.827z M204.667,350c0-15.682,2.507-30.787,7.124-44.947l58.869,38.701
		c3.041,2,3.369,5.034,3.369,6.246c0,1.211-0.328,4.247-3.369,6.246l-58.869,38.701C207.174,380.785,204.667,365.681,204.667,350z
		 M242.039,447.187l62.884-31.594c3.252-1.633,6.043-0.4,7.093,0.206c1.049,0.605,3.515,2.408,3.725,6.04l4.08,70.334
		C289.264,485.693,262.225,469.589,242.039,447.187z M341.559,495.082l-4.321-74.49c-0.569-9.779-5.972-18.542-14.455-23.44
		c-8.483-4.898-18.775-5.196-27.527-0.798l-66.637,33.479c-3.094-4.688-5.926-9.567-8.47-14.611l62.338-40.982
		c8.186-5.382,13.073-14.441,13.073-24.238s-4.887-18.857-13.073-24.24l-62.338-40.981c2.544-5.044,5.374-9.919,8.466-14.607
		l66.637,33.483c4.118,2.07,8.577,3.1,13.028,3.1c5.01,0,10.008-1.304,14.5-3.897c8.483-4.898,13.887-13.661,14.455-23.441
		l4.32-74.498c2.794-0.16,5.609-0.252,8.442-0.252c2.833,0,5.646,0.092,8.439,0.252l4.319,74.489
		c0.569,9.779,5.973,18.541,14.455,23.441c4.493,2.593,9.491,3.898,14.5,3.898c4.451,0,8.909-1.028,13.026-3.098l66.644-33.479
		c3.092,4.688,5.924,9.563,8.467,14.607l-62.342,40.982c-8.186,5.383-13.073,14.443-13.073,24.239s4.888,18.856,13.073,24.238
		l62.344,40.984c-2.545,5.045-5.375,9.919-8.467,14.606l-66.643-33.487c-8.752-4.398-19.043-4.098-27.527,0.798
		c-8.483,4.897-13.888,13.662-14.457,23.442l-4.319,74.5c-2.793,0.161-5.605,0.251-8.437,0.251
		C347.166,495.333,344.353,495.242,341.559,495.082z M380.176,492.174l4.079-70.346c0.21-3.634,2.676-5.434,3.725-6.042
		c1.05-0.604,3.842-1.838,7.094-0.204l62.891,31.602C437.776,469.588,410.734,485.695,380.176,492.174z"/>
</g>
</svg>
